<svg xmlns="http://www.w3.org/2000/svg" width="1200" height="630" viewBox="0 0 1200 630">
  <defs>
    <radialGradient id="g1" cx="20%" cy="15%" r="80%">
      <stop offset="0%" stop-color="#f7f1e3"/>
      <stop offset="100%" stop-color="#f3ecdc"/>
    </radialGradient>
  </defs>
  <rect width="1200" height="630" fill="url(#g1)"/>
  <circle cx="120" cy="110" r="220" fill="#d97757" opacity="0.18"/>
  <circle cx="1080" cy="540" r="180" fill="#d97757" opacity="0.12"/>
  <g transform="translate(90,150)">
    <rect x="0" y="0" width="70" height="70" rx="18" fill="#1a1a1a"/>
    <g fill="#d97757" transform="translate(35,35)">
      <rect x="-2" y="-22" width="4" height="44" rx="2"/>
      <rect x="-2" y="-22" width="4" height="44" rx="2" transform="rotate(30)"/>
      <rect x="-2" y="-22" width="4" height="44" rx="2" transform="rotate(60)"/>
      <rect x="-2" y="-22" width="4" height="44" rx="2" transform="rotate(90)"/>
      <rect x="-2" y="-22" width="4" height="44" rx="2" transform="rotate(120)"/>
      <rect x="-2" y="-22" width="4" height="44" rx="2" transform="rotate(150)"/>
    </g>
    <text x="92" y="50" font-family="Arial, sans-serif" font-size="34" font-weight="700" fill="#1a1a1a">Vladimir AI</text>
  </g>
  <text x="90" y="330" font-family="Arial, sans-serif" font-size="72" font-weight="800" fill="#1a1a1a">Агентство</text>
  <text x="90" y="412" font-family="Arial, sans-serif" font-size="72" font-weight="800" fill="#1a1a1a">AI-<tspan fill="#d97757">автоматизации</tspan></text>
  <text x="92" y="480" font-family="Arial, sans-serif" font-size="30" fill="#4a463d">Боты · AI-агенты · автоматизации · интеграции</text>
  <rect x="90" y="520" width="300" height="62" rx="31" fill="#d97757"/>
  <text x="240" y="560" font-family="Arial, sans-serif" font-size="26" font-weight="700" text-anchor="middle" fill="#fffdf8">Заполнить анкету →</text>
</svg>
